<?xml version="1.0" encoding="UTF-8"?>
<svg width="170px" height="30px" viewBox="0 0 170 30" version="1.1" xmlns="http://www.w3.org/2000/svg" xmlns:xlink="http://www.w3.org/1999/xlink">
    <title>Combined Shape</title>
    <g id="Symbols" stroke="none" stroke-width="1" fill="none" fill-rule="evenodd">
        <path d="M81.2570349,8.70414851e-13 C81.8901131,8.70414851e-13 82.4107249,0.476518085 82.4733284,1.08768933 L82.4796399,1.21161766 L82.4796399,18.0001 C82.4796399,19.3306187 83.0231607,20.4564099 84.239431,21.4402736 C85.4421872,22.4065533 86.8493443,22.8687599 88.5356524,22.8687599 C90.2223828,22.8687599 91.6291176,22.4065533 92.8322961,21.4402736 C93.834255,20.6294583 94.3789339,19.7227258 94.5398114,18.6839947 L94.5684374,18.459376 L92.9433652,18.459376 C92.310287,18.459376 91.789304,17.9824899 91.7266541,17.3716176 L91.7203379,17.2477583 L91.7203379,12.628623 L102.074261,12.628623 L102.074261,18.2487873 C102.074261,21.4704175 100.73932,24.2545424 98.2501889,26.5345941 C95.7758391,28.7886886 92.4775506,29.9923516 88.5356524,29.9999441 C85.0118471,30.0095169 81.2992665,28.7886886 78.8211158,26.5345941 C76.4135522,24.3440471 75.0960941,21.6692173 75.0050609,18.5923157 L75,18.2487873 L75,8.70414851e-13 L81.2570349,8.70414851e-13 Z M113.931629,16.3874009 C115.207868,16.3874009 116.28942,16.6679067 117.175017,17.2272437 C118.060613,17.7857433 118.68353,18.4824026 119.042921,19.3180587 L118.039075,19.7785906 C117.717271,19.0530435 117.193599,18.4790532 116.468482,18.0549452 C115.74421,17.6320931 114.891554,17.4194111 113.913047,17.4194111 C112.327251,17.4194111 111.053968,17.9427429 110.094043,18.986057 C109.133274,20.0302085 108.653523,21.4557642 108.653523,23.2610494 C108.653523,25.0052094 109.111736,26.3905732 110.028584,27.4158848 C110.945855,28.4420337 112.135097,28.9540614 113.597577,28.9540614 C114.972638,28.9540614 116.124717,28.5060895 117.054234,27.6088895 C117.98333,26.7116896 118.460547,25.5147252 118.485041,24.0159031 L113.931629,24.0159031 L113.931629,23.0018955 L119.600378,23.0018955 L119.600378,23.8873728 C119.600378,25.7910444 119.021383,27.2844238 117.86297,28.3654179 C116.703712,29.4455746 115.288953,29.9860716 113.615737,29.9860716 C111.757124,29.9860716 110.273527,29.3727268 109.164103,28.1426879 C108.055101,26.9155796 107.5006,25.2995312 107.5006,23.2978919 C107.5006,21.2217302 108.092687,19.5512553 109.276017,18.2860485 C110.458924,17.0212603 112.010936,16.3874009 113.931629,16.3874009 Z M137.74012,16.3874009 C139.586486,16.3874009 141.075995,17.0145617 142.209491,18.2672085 C143.34341,19.5194367 143.91058,21.1668851 143.91058,23.2062042 C143.91058,25.2325447 143.34341,26.8686891 142.209491,28.1158933 C141.075995,29.3626789 139.586486,29.9860716 137.74012,29.9860716 C135.881507,29.9860716 134.378906,29.3660282 133.233163,28.1246853 C132.086575,26.8841797 131.513492,25.244686 131.513492,23.2062042 C131.513492,21.1668851 132.086575,19.5194367 133.233163,18.2672085 C134.378906,17.0145617 135.881507,16.3874009 137.74012,16.3874009 Z M146.68393,16.6277149 C146.958858,16.6277149 147.181418,16.8487702 147.181418,17.12174 L147.181418,25.361075 C147.181418,26.4910529 147.484641,27.3702502 148.092354,27.9957364 C148.6988,28.6220598 149.597911,28.9352215 150.787153,28.9352215 C151.976817,28.9352215 152.874661,28.6220598 153.482374,27.9957364 C154.08882,27.3702502 154.39331,26.4910529 154.39331,25.361075 L154.39331,17.12174 C154.39331,16.8487702 154.61587,16.6277149 154.890798,16.6277149 L155.526806,16.6277149 L155.526806,25.4167575 C155.526806,26.8289159 155.114625,27.9442405 154.290687,28.7602194 C153.466748,29.5778729 152.298622,29.9860716 150.787153,29.9860716 C149.275261,29.9860716 148.111358,29.5778729 147.29291,28.7602194 C146.475306,27.9442405 146.066926,26.8289159 146.066926,25.4167575 L146.066926,16.6277149 L146.68393,16.6277149 Z M125.956657,16.6277149 C127.294977,16.6277149 128.319938,16.9680898 129.032385,17.6509331 C129.744832,18.3321017 130.101689,19.2803788 130.101689,20.4974391 C130.101689,21.5537319 129.788331,22.4040413 129.162881,23.0492047 C128.537008,23.6935307 127.654368,24.0778656 126.513692,24.2005345 L130.249922,29.7838563 L129.073772,29.7838563 C128.903156,29.7838563 128.744788,29.6971925 128.65399,29.5548463 L125.231963,24.2365398 L122.871216,24.2365398 L122.871216,29.7838563 L121.756301,29.7838563 L121.756301,17.254457 C121.756301,17.0702442 121.815003,16.9199433 121.93283,16.802717 C122.050233,16.6859093 122.195932,16.6277149 122.369504,16.6277149 L125.956657,16.6277149 Z M161.994577,16.6277149 C163.407224,16.6277149 164.482018,16.9965591 165.21896,17.7325728 C165.955901,18.4710986 166.325006,19.4528689 166.325006,20.6812332 C166.325006,22.0197065 165.944076,23.0429247 165.182218,23.7492132 C164.419938,24.4559204 163.326139,24.808018 161.901667,24.808018 L159.039631,24.808018 L159.039631,29.7838563 L157.923872,29.7838563 L157.923872,17.254457 C157.923872,17.0702442 157.982996,16.9199433 158.100822,16.802717 C158.218226,16.6859093 158.363925,16.6277149 158.53792,16.6277149 L161.994577,16.6277149 Z M137.74012,17.4390884 C136.227806,17.4390884 135.004357,17.9573962 134.069349,18.9952677 C133.133496,20.0327205 132.66557,21.4369243 132.66557,23.2062042 C132.66557,24.9629242 133.133496,26.3562427 134.069349,27.3882529 C135.004357,28.4198444 136.227806,28.9352215 137.74012,28.9352215 C139.227095,28.9352215 140.434919,28.4198444 141.364437,27.3882529 C142.29311,26.3562427 142.75808,24.9629242 142.75808,23.2062042 C142.75808,21.4369243 142.29311,20.0327205 141.364437,18.9952677 C140.434919,17.9573962 139.227095,17.4390884 137.74012,17.4390884 Z M161.919827,17.6597251 L159.039631,17.6597251 L159.039631,23.7764265 L161.919827,23.7764265 C164.08842,23.7764265 165.172927,22.738555 165.172927,20.6623933 C165.172927,19.6927642 164.900111,18.9492145 164.354901,18.4334187 C163.809691,17.9176229 162.998,17.6597251 161.919827,17.6597251 Z M125.78942,17.6597251 L122.871216,17.6597251 L122.871216,23.2422094 L125.677506,23.2422094 C126.743854,23.2422094 127.555546,23.0018955 128.113003,22.523361 C128.670038,22.0444077 128.949189,21.3510979 128.949189,20.4417566 C128.949189,19.5571166 128.679329,18.8725987 128.140453,18.3869469 C127.601156,17.9017137 126.81776,17.6597251 125.78942,17.6597251 Z M58.0388181,12.9541016 C59.0502113,12.9541016 59.851074,13.2767741 60.441406,13.9221191 C61.031738,14.5674642 61.3269041,15.4402669 61.3269041,16.5405273 C61.3269041,17.6661784 61.0306801,18.5506185 60.4382322,19.1938477 C59.8457843,19.8370768 59.0311684,20.1586914 57.9943845,20.1586914 C57.0083819,20.1586914 56.2212725,19.8317871 55.6330564,19.1779785 C55.0448403,18.5241699 54.7507322,17.6492513 54.7507322,16.5532227 C54.7507322,15.4444987 55.0458982,14.5674642 55.6362302,13.9221191 C56.2265623,13.2767741 57.0274249,12.9541016 58.0388181,12.9541016 Z M41.4774644,12.9477539 C42.3111232,12.9477539 42.9554103,13.2439779 43.4103257,13.8364258 C43.8652411,14.4288737 44.0926987,15.2709961 44.0926987,16.362793 L44.0926987,16.362793 L44.0863511,16.75 L39.7382066,16.75 L39.7654571,16.9589687 C39.9910769,18.4573515 40.7839139,19.206543 42.1439683,19.206543 C42.6644761,19.206543 43.3034735,19.0668945 44.0609605,18.7875977 L44.0609605,18.7875977 L44.0609605,19.777832 L43.7524049,19.8670959 C43.045633,20.0614929 42.4311997,20.1586914 41.909105,20.1586914 C40.89348,20.1586914 40.0651109,19.8212077 39.4239976,19.1462402 C38.7828843,18.4712728 38.4623277,17.5963542 38.4623277,16.5214844 C38.4623277,15.476237 38.7447984,14.6193034 39.3097398,13.9506836 C39.8746812,13.2820638 40.597256,12.9477539 41.4774644,12.9477539 Z M13.9167294,12.9477539 C14.7503882,12.9477539 15.3946753,13.2439779 15.8495907,13.8364258 C16.3045061,14.4288737 16.5319637,15.2709961 16.5319637,16.362793 L16.5319637,16.362793 L16.5256161,16.75 L12.1774716,16.75 L12.2047221,16.9589687 C12.4303419,18.4573515 13.2231789,19.206543 14.5832333,19.206543 C15.1037411,19.206543 15.7427385,19.0668945 16.5002255,18.7875977 L16.5002255,18.7875977 L16.5002255,19.777832 L16.1916699,19.8670959 C15.484898,20.0614929 14.8704647,20.1586914 14.34837,20.1586914 C13.332745,20.1586914 12.5043759,19.8212077 11.8632626,19.1462402 C11.2221493,18.4712728 10.9015927,17.5963542 10.9015927,16.5214844 C10.9015927,15.476237 11.1840634,14.6193034 11.7490048,13.9506836 C12.3139462,13.2820638 13.036521,12.9477539 13.9167294,12.9477539 Z M32.0768483,9.97705078 L32.0768483,14.4013672 L32.1826708,14.2148307 C32.6924393,13.3743446 33.4252315,12.9541016 34.3810475,12.9541016 C35.2104746,12.9541016 35.8632252,13.2566732 36.3392994,13.8618164 C36.8153737,14.4669596 37.0534108,15.2942708 37.0534108,16.34375 C37.0534108,17.4863281 36.7836354,18.4077962 36.2440846,19.1081543 C35.7045338,19.8085124 34.9946543,20.1586914 34.1144459,20.1586914 C33.2977142,20.1586914 32.6185149,19.8455404 32.0768483,19.2192383 L32.0768483,19.2192383 L31.9245045,20.0761719 L30.82636,20.0761719 L30.82636,9.97705078 L32.0768483,9.97705078 Z M65.611553,9.81835938 C66.0304983,9.81835938 66.5065725,9.88818359 67.0397756,10.027832 L67.0397756,10.027832 L67.0397756,11.0180664 L66.8054305,10.9490195 C66.350472,10.8215482 65.9779034,10.7578125 65.6877248,10.7578125 C65.2772431,10.7578125 64.9968882,10.8562012 64.8466604,11.0529785 C64.6964325,11.2497559 64.6213186,11.6147461 64.6213186,12.1479492 L64.6213186,12.1479492 L64.6213186,13.1064453 L66.3415334,13.1064453 L66.3415334,14.0458984 L64.6213186,14.0458984 L64.6213186,20 L63.3644826,20 L63.3644826,14.0458984 L62.3869436,14.0458984 L62.3869436,13.1064453 L63.3644826,13.1064453 L63.3644826,12.28125 L63.3683838,12.080285 C63.4282017,10.5723346 64.1759247,9.81835938 65.611553,9.81835938 Z M49.6593305,12.9541016 C49.7862836,12.9541016 49.9195844,12.964681 50.0592328,12.9858398 L50.0592328,12.9858398 L50.0592328,14.1538086 L49.9021283,14.1065979 C49.7497846,14.0661316 49.611723,14.0458984 49.4879437,14.0458984 C48.6966026,14.0458984 48.0343305,14.515625 47.5011273,15.4550781 L47.5011273,15.4550781 L47.5011273,20 L46.2506391,20 L46.2506391,13.1064453 L47.5011273,13.1064453 L47.5011273,14.4013672 L47.6031412,14.2148307 C48.0931615,13.3743446 48.7785579,12.9541016 49.6593305,12.9541016 Z M26.4848259,12.9477539 C27.0942009,12.9477539 27.5660434,13.1265462 27.9003533,13.4841309 C28.2346632,13.8417155 28.4018181,14.3421224 28.4018181,14.9853516 L28.4018181,14.9853516 L28.4018181,20 L27.1449822,20 L27.1449822,15.1821289 L27.140835,15.0299544 C27.1021285,14.3442947 26.7924757,14.0014648 26.2118767,14.0014648 C25.5644158,14.0014648 24.8852166,14.460612 24.1742791,15.3789063 L24.1742791,15.3789063 L24.1742791,20 L22.9174431,20 L22.9174431,15.1821289 L22.9132114,15.0291363 C22.8737148,14.3397902 22.5577426,13.9951172 21.9652947,13.9951172 C21.3347608,13.9951172 20.6597934,14.4563802 19.9403923,15.3789063 L19.9403923,15.3789063 L19.9403923,20 L18.6899041,20 L18.6899041,13.1064453 L19.9403923,13.1064453 L19.9403923,14.4013672 L20.0645807,14.2148307 C20.6549221,13.3743446 21.3964036,12.9541016 22.2890252,12.9541016 C23.2115512,12.9541016 23.8399692,13.4365234 24.1742791,14.4013672 C24.766727,13.4322917 25.5369093,12.9477539 26.4848259,12.9477539 Z M2.05957031,10.6054688 L4.66210938,17.8735352 L7.34082031,10.6054688 L8.99121094,10.6054688 L8.99121094,20 L7.74707031,20 L7.74707031,12.3574219 L5.15722656,19.371582 L3.86865234,19.371582 L1.35498047,12.3383789 L1.35498047,20 L0.212402344,20 L0.212402344,10.6054688 L2.05957031,10.6054688 Z M58.0388181,13.8935547 C56.7354327,13.8935547 56.08374,14.7801107 56.08374,16.5532227 C56.08374,18.3305664 56.7269692,19.2192383 58.0134275,19.2192383 C59.3379718,19.2192383 60.0002439,18.3263346 60.0002439,16.5405273 C60.0002439,14.7758789 59.3464353,13.8935547 58.0388181,13.8935547 Z M34.1207936,14.0458984 C33.4225514,14.0458984 32.7412363,14.4246419 32.0768483,15.1821289 L32.0768483,15.1821289 L32.0768483,18.355957 L32.2689284,18.5199805 C32.8425026,18.9861523 33.3920827,19.2192383 33.9176686,19.2192383 C35.1194915,19.2192383 35.720403,18.3030599 35.720403,16.4707031 C35.720403,14.8541667 35.1871998,14.0458984 34.1207936,14.0458984 Z M13.8405575,13.887207 C12.8799455,13.887207 12.3446265,14.5283203 12.2346005,15.8105469 L12.2346005,15.8105469 L15.2751278,15.8105469 C15.2751278,14.5283203 14.7969377,13.887207 13.8405575,13.887207 Z M41.4012925,13.887207 C40.4406805,13.887207 39.9053615,14.5283203 39.7953355,15.8105469 L39.7953355,15.8105469 L42.8358628,15.8105469 C42.8358628,14.5283203 42.3576727,13.887207 41.4012925,13.887207 Z M109.693265,0.0929437179 C109.968193,0.0929437179 110.190754,0.313161716 110.190754,0.586968885 L110.190754,8.8271412 C110.190754,9.95628178 110.494399,10.8346418 111.101689,11.4609652 C111.708557,12.0872886 112.607246,12.4004504 113.79691,12.4004504 C114.986152,12.4004504 115.884419,12.0872886 116.491709,11.4609652 C117.098577,10.8346418 117.402223,9.95628178 117.402223,8.8271412 L117.402223,0.586968885 C117.402223,0.313161716 117.625206,0.0929437179 117.900133,0.0929437179 L118.535719,0.0929437179 L118.535719,8.88156771 C118.535719,10.2945634 118.123961,11.4094694 117.300445,12.2254482 C116.476084,13.0431017 115.30838,13.4517192 113.79691,13.4517192 C112.285019,13.4517192 111.120271,13.0431017 110.302667,12.2254482 C109.484641,11.4094694 109.075839,10.2945634 109.075839,8.88156771 L109.075839,0.0929437179 L109.693265,0.0929437179 Z M121.565415,0.000837330792 C121.726317,0.000837330792 121.862725,0.0251199237 121.974639,0.0741037751 C122.085708,0.123506292 122.16637,0.175002135 122.215781,0.231103298 C122.265615,0.285948465 122.333607,0.375124195 122.420605,0.498630486 L130.189531,11.3872801 L130.189531,0.0929437179 L131.2487,0.0929437179 L131.2487,12.8982435 C131.2487,13.0338911 131.189998,13.1444188 131.072172,13.2302452 C130.954345,13.3160716 130.814981,13.3596128 130.654079,13.3596128 C130.331852,13.3596128 130.071705,13.2248025 129.873639,12.953926 L121.993221,1.82496246 L121.993221,13.2490851 L120.934052,13.2490851 L120.934052,0.498630486 C120.934052,0.350841602 120.992332,0.231103298 121.110158,0.138996911 C121.227562,0.0473091897 121.379595,0.000837330792 121.565415,0.000837330792 Z M163.810536,0.0929437179 C165.607491,0.0929437179 167.088131,0.717173823 168.252878,1.96312204 C169.417626,3.20948892 170,4.76064422 170,6.61491325 C170,8.5441234 169.417626,10.1321212 168.252878,11.3789068 C167.088131,12.6252737 165.607491,13.2490851 163.810536,13.2490851 L159.368615,13.2490851 L159.368615,0.71926715 C159.368615,0.509934452 159.434074,0.353772259 159.563725,0.24910591 C159.693799,0.144439562 159.851745,0.0929437179 160.037986,0.0929437179 L163.810536,0.0929437179 Z M157.045877,0.0929437179 L157.045877,1.12495392 L150.187464,1.12495392 L150.187464,6.00742976 L156.450834,6.00742976 L156.450834,7.03943996 L150.187464,7.03943996 L150.187464,12.2170749 L156.915804,12.2170749 L156.915804,13.2490851 L149.072127,13.2490851 L149.072127,0.71926715 C149.072127,0.509934452 149.137164,0.353772259 149.267237,0.24910591 C149.397733,0.144439562 149.556101,0.0929437179 149.741076,0.0929437179 L157.045877,0.0929437179 Z M147.176773,0.0929437179 L147.176773,0.630928751 C147.176773,0.904317255 146.953367,1.12495392 146.678862,1.12495392 L142.938831,1.12495392 L142.938831,13.2490851 L141.823494,13.2490851 L141.823494,1.12495392 L138.083885,1.12495392 C137.808958,1.12495392 137.586397,0.904317255 137.586397,0.630928751 L137.586397,0.0929437179 L147.176773,0.0929437179 Z M135.467637,0.0929437179 L135.467637,12.7550599 C135.467637,13.0276111 135.245077,13.2490851 134.969727,13.2490851 L134.352301,13.2490851 L134.352301,0.586968885 C134.352301,0.313161716 134.575706,0.0929437179 134.850211,0.0929437179 L135.467637,0.0929437179 Z M163.773794,1.12495392 L160.48353,1.12495392 L160.48353,12.2170749 L163.755212,12.2170749 C165.216848,12.2170749 166.431429,11.7037911 167.398111,10.6780609 C168.36437,9.65274937 168.847499,8.29878548 168.847499,6.61491325 C168.847499,4.99425951 168.36437,3.67378885 167.398111,2.65391994 C166.431429,1.63446971 165.223605,1.12495392 163.773794,1.12495392 Z M102.074261,0.000837330793 L102.076795,7.06497855 C102.078062,7.66492607 101.587331,8.15141526 100.981729,8.15141526 C100.570816,8.15141526 100.212692,7.9282666 100.025183,7.59710227 C98.6636364,5.26011203 96.6513003,3.31415527 94.2255168,2.02215386 C93.9049789,1.83166111 93.6908646,1.48500616 93.6908646,1.08811136 C93.6908646,0.527378844 94.118714,0.0662105368 94.6681368,0.00721357376 L94.7876195,0.000837330793 L102.074261,0.000837330793 Z" id="Combined-Shape" fill="#FFFFFF"></path>
    </g>
</svg>