<?xml version="1.0" encoding="UTF-8"?>
<svg id="Layer_1" data-name="Layer 1" xmlns="http://www.w3.org/2000/svg" viewBox="0 0 100 100">
  <defs>
    <style>
      .cls-1 {
        fill: none;
        stroke: #000;
        stroke-miterlimit: 10;
        stroke-width: 4px;
      }
    </style>
  </defs>
  <path class="cls-1" d="M50.22,7.52c-1.13,0-2.27,.38-3.21,.95L10.14,33.61c-1.32,1.13-2.08,2.84-1.89,4.54v48.21c-.19,2.84,1.89,5.1,4.54,5.29H86.9c2.84,0,5.1-2.08,5.1-4.92h0V38.15c0-1.7-.57-3.4-1.89-4.54L53.43,8.47c-.95-.57-2.08-.95-3.21-.95Z"/>
  <g>
    <path d="M25.09,51.1c-.76,0-1.51-.3-1.98-.76-1.22-1.06-1.22-3.04,0-4.1,7.3-7.46,17.04-11.72,27.38-11.72s19.47,3.81,26.62,10.95c1.22,1.06,1.22,3.04,0,4.1-1.06,1.22-3.04,1.22-4.1,0-6.08-5.93-14.14-9.28-22.51-9.28-8.82,0-17.04,3.5-23.26,9.89-.45,.61-1.37,.91-2.12,.91h-.01Z"/>
    <path d="M32.24,58.11c-.76,0-1.51-.3-1.98-.76-1.22-1.06-1.22-3.04,0-4.1,5.17-5.77,12.32-8.82,20.08-8.82s14.6,2.89,19.77,8.21c1.22,1.22,1.22,3.04,0,4.1-1.22,1.22-3.04,1.22-4.1,0-4.26-4.26-9.73-6.54-15.66-6.54s-11.72,2.43-15.96,6.85c-.61,.76-1.37,1.06-2.12,1.06h-.01Z"/>
    <path d="M39.38,64.94c-.76,0-1.51-.3-1.98-.76-1.22-1.06-1.22-3.04,0-4.1,3.5-3.5,8.06-5.48,12.93-5.48s9.28,1.83,12.78,5.32c1.22,1.22,1.22,3.04,0,4.1-1.22,1.22-3.04,1.22-4.1,0-2.28-2.28-5.32-3.5-8.52-3.5s-6.38,1.37-8.67,3.65c-.91,.45-1.67,.76-2.43,.76Z"/>
    <path d="M50.03,80.92c-4.41,0-8.06-3.65-8.06-8.06s3.65-8.06,8.06-8.06,8.06,3.65,8.06,8.06c.16,4.41-3.5,8.06-8.06,8.06Zm0-10.34c-1.22,0-2.28,1.06-2.28,2.28s1.06,2.28,2.28,2.28,2.28-1.06,2.28-2.28-.91-2.28-2.28-2.28Z"/>
  </g>
</svg>