<?xml version="1.0" encoding="utf-8"?>
<!-- Generator: Adobe Illustrator 19.0.0, SVG Export Plug-In . SVG Version: 6.00 Build 0)  -->
<svg version="1.1" id="livetype" xmlns="http://www.w3.org/2000/svg" xmlns:xlink="http://www.w3.org/1999/xlink" x="0px" y="0px"
	 viewBox="0 0 119.7 40" style="enable-background:new 0 0 119.7 40;" xml:space="preserve">
<style type="text/css">
	.st0{fill:#FFFFFF;}
</style>
<g>
	<g>
		<g>
			<g>
				<path d="M7.6,40c-0.3,0-0.6,0-0.9,0c-0.6,0-1.2,0-1.9-0.2c-0.6-0.1-1.2-0.3-1.7-0.6c-0.5-0.3-1-0.6-1.4-1.1
					c-0.4-0.4-0.8-0.9-1-1.5c-0.3-0.5-0.4-1.1-0.6-1.7c-0.1-0.7-0.2-1.4-0.2-2c0-0.2,0-1,0-1V7.8c0,0,0-0.7,0-0.9c0-0.5,0-1.3,0.2-2
					c0.1-0.6,0.3-1.2,0.6-1.7c0.3-0.6,0.6-1,1-1.5c0.4-0.4,0.9-0.8,1.4-1.1c0.5-0.3,1.1-0.5,1.7-0.6c0.7-0.1,1.4-0.2,1.9-0.2l0.9,0
					H112l0.9,0c0.5,0,1.2,0,1.9,0.2c0.6,0.1,1.2,0.3,1.7,0.6c0.5,0.3,1,0.6,1.4,1.1c0.4,0.4,0.8,0.9,1,1.5c0.3,0.5,0.4,1.1,0.5,1.7
					c0.1,0.7,0.2,1.3,0.2,2c0,0.3,0,0.6,0,0.9c0,0.4,0,0.8,0,1.1v22c0,0.4,0,0.8,0,1.1c0,0.3,0,0.7,0,1c0,0.6-0.1,1.3-0.2,1.9
					c-0.1,0.6-0.3,1.2-0.5,1.8c-0.3,0.5-0.6,1-1,1.5c-0.4,0.4-0.9,0.8-1.4,1.1c-0.5,0.3-1.1,0.5-1.7,0.6c-0.7,0.1-1.3,0.2-1.9,0.2
					c-0.3,0-0.6,0-0.9,0l-1.1,0L7.6,40z"/>
			</g>
		</g>
		<g id="XMLID_20_">
			<g id="XMLID_22_">
				<g id="XMLID_23_">
					<path id="XMLID_25_" class="st0" d="M23.8,19.3c0-2.8,2.3-4.1,2.4-4.2c-1.3-1.9-3.3-2.1-4-2.2c-1.7-0.2-3.3,1-4.2,1
						c-0.9,0-2.2-1-3.6-1c-1.8,0-3.5,1.1-4.5,2.7c-1.9,3.3-0.5,8.3,1.4,11c0.9,1.3,2,2.8,3.4,2.8c1.4-0.1,1.9-0.9,3.6-0.9
						c1.7,0,2.1,0.9,3.6,0.9c1.5,0,2.4-1.3,3.3-2.7c1.1-1.5,1.5-3,1.5-3.1C26.7,23.7,23.8,22.6,23.8,19.3z"/>
					<path id="XMLID_24_" class="st0" d="M21,11.2c0.7-0.9,1.3-2.2,1.1-3.5c-1.1,0-2.4,0.7-3.2,1.7c-0.7,0.8-1.3,2.1-1.1,3.4
						C19,12.8,20.3,12.1,21,11.2z"/>
				</g>
			</g>
			<g>
				<path class="st0" d="M41.3,26.1h-4.7l-1.1,3.4h-2l4.5-12.4H40l4.5,12.4h-2L41.3,26.1z M37.1,24.6h3.8L39,19.1h-0.1L37.1,24.6z"
					/>
				<path class="st0" d="M54.2,25c0,2.8-1.5,4.6-3.8,4.6c-1.3,0-2.3-0.6-2.8-1.6h0v4.5h-1.9v-12h1.8v1.5h0c0.5-1,1.6-1.6,2.9-1.6
					C52.6,20.3,54.2,22.2,54.2,25z M52.2,25c0-1.8-0.9-3-2.4-3c-1.4,0-2.4,1.2-2.4,3c0,1.8,1,3,2.4,3C51.3,28,52.2,26.8,52.2,25z"/>
				<path class="st0" d="M64.1,25c0,2.8-1.5,4.6-3.8,4.6c-1.3,0-2.3-0.6-2.8-1.6h0v4.5h-1.9v-12h1.8v1.5h0c0.5-1,1.6-1.6,2.9-1.6
					C62.6,20.3,64.1,22.2,64.1,25z M62.2,25c0-1.8-0.9-3-2.4-3c-1.4,0-2.4,1.2-2.4,3c0,1.8,1,3,2.4,3C61.3,28,62.2,26.8,62.2,25z"/>
				<path class="st0" d="M70.7,26c0.1,1.2,1.3,2,3,2c1.6,0,2.7-0.8,2.7-1.9c0-1-0.7-1.5-2.3-1.9l-1.6-0.4c-2.3-0.6-3.3-1.6-3.3-3.3
					c0-2.1,1.9-3.6,4.5-3.6c2.6,0,4.4,1.5,4.5,3.6h-1.9c-0.1-1.2-1.1-2-2.6-2s-2.5,0.8-2.5,1.9c0,0.9,0.7,1.4,2.3,1.8l1.4,0.3
					c2.5,0.6,3.6,1.6,3.6,3.4c0,2.3-1.9,3.8-4.8,3.8c-2.8,0-4.6-1.4-4.7-3.7H70.7z"/>
				<path class="st0" d="M82.3,18.3v2.1h1.7v1.5h-1.7v5c0,0.8,0.3,1.1,1.1,1.1c0.2,0,0.5,0,0.6,0v1.5c-0.2,0.1-0.6,0.1-1,0.1
					c-1.8,0-2.5-0.7-2.5-2.4v-5.2h-1.3v-1.5h1.3v-2.1H82.3z"/>
				<path class="st0" d="M85.1,25c0-2.8,1.7-4.6,4.3-4.6c2.6,0,4.3,1.8,4.3,4.6c0,2.9-1.7,4.6-4.3,4.6C86.7,29.6,85.1,27.8,85.1,25z
					 M91.8,25c0-2-0.9-3.1-2.4-3.1S87,23,87,25c0,2,0.9,3.1,2.4,3.1S91.8,26.9,91.8,25z"/>
				<path class="st0" d="M95.2,20.4H97V22h0c0.3-1,1.1-1.6,2.2-1.6c0.3,0,0.5,0,0.6,0.1v1.7C99.7,22.1,99.3,22,99,22
					c-1.2,0-1.9,0.8-1.9,2.1v5.4h-1.9V20.4z"/>
				<path class="st0" d="M108.4,26.8c-0.3,1.6-1.9,2.8-3.9,2.8c-2.6,0-4.3-1.8-4.3-4.6c0-2.8,1.6-4.7,4.2-4.7c2.5,0,4.1,1.7,4.1,4.5
					v0.6h-6.4v0.1c0,1.5,1,2.6,2.4,2.6c1,0,1.8-0.5,2.1-1.3H108.4z M102.1,24.1h4.5c0-1.4-0.9-2.3-2.2-2.3
					C103.1,21.8,102.2,22.8,102.1,24.1z"/>
			</g>
		</g>
	</g>
	<g id="XMLID_1_">
		<g>
			<path class="st0" d="M34.5,10.7c0-1.9,1-3.1,2.7-3.1c1.3,0,2.3,0.9,2.5,2.1h-0.9c-0.2-0.7-0.8-1.2-1.6-1.2
				c-1.1,0-1.7,0.9-1.7,2.3c0,1.4,0.7,2.3,1.7,2.3c0.8,0,1.4-0.4,1.6-1.1h0.9c-0.2,1.2-1.1,2-2.5,2C35.5,13.8,34.5,12.6,34.5,10.7z"
				/>
			<path class="st0" d="M41,9.2h2c0.9,0,1.4,0.4,1.4,1.1c0,0.5-0.3,0.9-0.8,1v0.1c0.6,0.1,1,0.5,1,1c0,0.8-0.6,1.3-1.6,1.3H41V9.2z
				 M41.8,9.9V11h0.9c0.5,0,0.8-0.2,0.8-0.6c0-0.4-0.2-0.6-0.7-0.6H41.8z M41.8,11.7V13h1.1c0.5,0,0.8-0.2,0.8-0.7
				c0-0.5-0.3-0.7-0.9-0.7H41.8z"/>
			<path class="st0" d="M45.6,12.4c0-0.8,0.6-1.3,1.7-1.3l1.2-0.1v-0.4c0-0.5-0.3-0.7-0.9-0.7c-0.5,0-0.8,0.2-0.9,0.5h-0.9
				c0.1-0.8,0.8-1.3,1.8-1.3c1.1,0,1.8,0.6,1.8,1.5v3.1h-0.9v-0.6h-0.1c-0.3,0.5-0.8,0.7-1.4,0.7C46.3,13.8,45.6,13.2,45.6,12.4z
				 M48.5,12v-0.4l-1.1,0.1c-0.6,0-0.9,0.3-0.9,0.6c0,0.4,0.4,0.6,0.8,0.6C48,13,48.5,12.6,48.5,12z"/>
			<path class="st0" d="M50.7,13.7c-0.1,0-0.3,0-0.3,0v-0.8c0,0,0.1,0,0.2,0c0.4,0,0.6-0.5,0.6-1.3l0.2-2.4h3.1v4.5h-0.9V9.9h-1.4
				l-0.1,1.7C52,12.9,51.7,13.7,50.7,13.7z"/>
			<path class="st0" d="M56,13.7V9.2h0.9v3.1H57l2.1-3.1h0.9v4.5h-0.9v-3.1H59l-2.1,3.1H56z"/>
			<path class="st0" d="M63.7,11.4c0-1.5,0.8-2.3,2.1-2.3c1.3,0,2.1,0.9,2.1,2.3c0,1.5-0.8,2.3-2.1,2.3
				C64.5,13.8,63.7,12.9,63.7,11.4z M67,11.4c0-1-0.4-1.5-1.2-1.5c-0.8,0-1.2,0.6-1.2,1.5c0,1,0.4,1.6,1.2,1.6
				C66.5,13,67,12.4,67,11.4z"/>
			<path class="st0" d="M72.3,9.9h-1.4v3.8h-0.9V9.9h-1.4V9.2h3.7V9.9z"/>
		</g>
	</g>
</g>
</svg>
